<svg xmlns="http://www.w3.org/2000/svg" width="60" height="60" viewBox="0 0 60 60">
  <g id="Search" transform="translate(-712 -442)">
    <rect id="Rectangle_693" data-name="Rectangle 693" width="37.515" height="37.515" transform="translate(712 442)" fill="none"/>
    <path id="Path_208" data-name="Path 208" d="M60,54.717,47.547,42.264A25.837,25.837,0,0,0,52.83,26.415,26.253,26.253,0,0,0,26.415,0,26.253,26.253,0,0,0,0,26.415,26.253,26.253,0,0,0,26.415,52.83a25.837,25.837,0,0,0,15.849-5.283L54.717,60ZM7.547,26.415A18.685,18.685,0,0,1,26.415,7.547,18.685,18.685,0,0,1,45.283,26.415,18.685,18.685,0,0,1,26.415,45.283,18.685,18.685,0,0,1,7.547,26.415Z" transform="translate(712 442)" fill="#5d5d5d"/>
  </g>
</svg>
