<svg xmlns="http://www.w3.org/2000/svg" xmlns:xlink="http://www.w3.org/1999/xlink" width="1920" height="2058" viewBox="0 0 1920 2058">
  <defs>
    <clipPath id="clip-path">
      <rect id="Rectangle_1001" data-name="Rectangle 1001" width="1920" height="566" transform="translate(0 133)" fill="#fff" stroke="#707070" stroke-width="1"/>
    </clipPath>
    <clipPath id="clip-path-2">
      <rect id="Rectangle_1002" data-name="Rectangle 1002" width="646" height="872" transform="translate(0 618)" fill="#fff" stroke="#707070" stroke-width="1"/>
    </clipPath>
    <linearGradient id="linear-gradient" x1="0.5" x2="0.5" y2="1" gradientUnits="objectBoundingBox">
      <stop offset="0" stop-color="#fff8c4"/>
      <stop offset="1" stop-color="#00c3ff"/>
    </linearGradient>
    <clipPath id="clip-path-3">
      <rect id="Rectangle_1003" data-name="Rectangle 1003" width="491" height="667" transform="translate(1429 1524)" fill="#fff" stroke="#707070" stroke-width="1"/>
    </clipPath>
  </defs>
  <g id="Group_3388" data-name="Group 3388" transform="translate(0 -133)">
    <g id="Mask_Group_8" data-name="Mask Group 8" clip-path="url(#clip-path)">
      <path id="Combined-Shape" d="M3678.349,3032.7c129.8-101.413,317.239-78.4,418.652,51.4s78.4,317.239-51.4,418.652-317.24,78.4-418.652-51.4S3548.547,3134.108,3678.349,3032.7Zm46.844,60.121c-96.688,75.541-113.832,215.161-38.29,311.849s215.161,113.832,311.849,38.29,113.832-215.161,38.291-311.849S3821.882,3017.275,3725.194,3092.816Z" transform="translate(-2099.705 -2866.91)" fill="#f8fafe"/>
    </g>
    <g id="Mask_Group_9" data-name="Mask Group 9" clip-path="url(#clip-path-2)">
      <path id="Path_1811" data-name="Path 1811" d="M2601.451,1107.174,2097.989,1979.2l-503.462-872.022Z" transform="translate(-1955.527 -489.174)" opacity="0.8" fill="url(#linear-gradient)"/>
    </g>
    <g id="Mask_Group_10" data-name="Mask Group 10" clip-path="url(#clip-path-3)">
      <path id="Path_1814" data-name="Path 1814" d="M2878.418,1107.174l-641.945,1393.5-641.946-1393.5Z" transform="matrix(0.616, 0.788, -0.788, 0.616, 1659.547, -414.221)" opacity="0.8" fill="url(#linear-gradient)"/>
    </g>
  </g>
</svg>
